<svg width="196" height="145" viewBox="0 0 196 145" fill="none" xmlns="http://www.w3.org/2000/svg">
    <path fillRule="evenodd" clipRule="evenodd" d="M190.694 14.6739V121.452C190.694 121.452 160.433 112.912 137.927 117.238C117.771 121.114 102.963 132.098 100.443 134.037V134.374C100.443 134.374 100.359 134.318 100.247 134.205C100.107 134.318 100.051 134.374 100.051 134.374V134.037C97.56 132.098 82.7234 121.143 62.5961 117.238C40.0893 112.884 6.86104 121.452 6.86104 121.452V14.3649C4.92949 14.6458 2.85797 14.9829 0.646484 15.292V130.329C0.646484 130.329 36.8701 120.974 61.5043 125.722C85.7467 130.385 100.387 144.459 100.387 144.459C100.387 144.459 115.028 130.385 139.242 125.722C163.877 120.974 198.616 130.329 198.616 130.329V15.7976C198.616 15.7976 195.593 15.292 190.722 14.6739H190.694ZM60.7485 106.45C80.4559 110.243 95.6844 121.704 95.6844 121.704V16.6404C95.6844 16.6404 80.372 5.17885 60.6365 1.38643C40.6492 -2.46217 14.5313 5.15076 14.5313 5.15076V110.215C14.5313 110.215 40.7332 102.602 60.7485 106.479V106.45ZM182.996 110.58V5.51595C182.996 5.51595 159.062 -2.09698 139.074 1.75162C119.339 5.57213 103.523 17.0056 103.523 17.0056V122.07C103.523 122.07 119.255 110.636 138.962 106.816C159.006 102.967 182.996 110.552 182.996 110.552V110.58Z" fill="#000000" />
</svg>