            <svg 
                width="32" 
                height="32" 
                viewBox="0 0 97 98" 
                fill="none" 
                xmlns="http://www.w3.org/2000/svg"
            >
                <path d="M0 48.5023C0 21.7178 21.6423 0 48.3508 0C75.0593 0 96.7016 21.7101 96.7016 48.5023C96.7016 75.2944 75.0593 97.0045 48.3508 97.0045C21.6423 97.0045 0 75.2867 0 48.5023ZM48.3508 92.1604C72.3884 92.1604 91.8726 72.6152 91.8726 48.5023C91.8726 24.3893 72.3884 4.84408 48.3508 4.84408C24.3132 4.84408 4.8213 24.3893 4.8213 48.5023C4.8213 72.6152 24.3055 92.1604 48.3431 92.1604H48.3508Z" fill="#000000" />
                <path fillRule="evenodd" clipRule="evenodd" d="M73.2532 32.7265V61.9062C73.2532 61.9062 64.9805 59.5724 58.8276 60.7546C53.3175 61.814 49.2691 64.8157 48.5804 65.3454V65.4375C48.5804 65.4375 48.5574 65.4221 48.5268 65.3914C48.4885 65.4221 48.4732 65.4375 48.4732 65.4375V65.3454C47.7921 64.8157 43.7361 61.8217 38.2337 60.7546C32.0808 59.5647 22.9968 61.9062 22.9968 61.9062V32.6421C22.4688 32.7188 21.9025 32.8109 21.2979 32.8954V64.332C21.2979 64.332 31.2007 61.7757 37.9352 63.073C44.5626 64.3474 48.5651 68.1935 48.5651 68.1935C48.5651 68.1935 52.5675 64.3474 59.1872 63.073C65.9218 61.7757 75.419 64.332 75.419 64.332V33.0336C75.419 33.0336 74.5925 32.8954 73.2609 32.7265H73.2532ZM37.7286 57.8067C43.1162 58.8431 47.2794 61.9753 47.2794 61.9753V33.2639C47.2794 33.2639 43.0933 30.1317 37.698 29.0954C32.2339 28.0436 25.0937 30.1241 25.0937 30.1241V58.8354C25.0937 58.8354 32.2568 56.755 37.7286 57.8144V57.8067ZM71.1487 58.9352V30.2239C71.1487 30.2239 64.6055 28.1434 59.1413 29.1952C53.7461 30.2392 49.4222 33.3637 49.4222 33.3637V62.0751C49.4222 62.0751 53.7231 58.9506 59.1107 57.9065C64.5902 56.8548 71.1487 58.9275 71.1487 58.9275V58.9352Z" fill="#000000" />
            </svg>